<?xml version="1.0" encoding="UTF-8"?>
<svg id="layer" xmlns="http://www.w3.org/2000/svg" xmlns:xlink="http://www.w3.org/1999/xlink" version="1.1" viewBox="0 0 750.4 521.1">
  <!-- Generator: Adobe Illustrator 30.4.0, SVG Export Plug-In . SVG Version: 2.1.4 Build 226)  -->
  <defs>
    <style>
      .st0 {
        fill: #040000;
      }

      .st1 {
        fill: #fff;
      }

      .st2 {
        fill: url(#Degradado_sin_nombre_39);
      }
    </style>
    <linearGradient id="Degradado_sin_nombre_39" data-name="Degradado sin nombre 39" x1="373" y1="25.3" x2="373" y2="386.6" gradientUnits="userSpaceOnUse">
      <stop offset="0" stop-color="#0f071c"/>
      <stop offset="0" stop-color="#11061d"/>
      <stop offset=".2" stop-color="#1b0621"/>
      <stop offset=".2" stop-color="#2b0629"/>
      <stop offset=".3" stop-color="#420534"/>
      <stop offset=".3" stop-color="#5f0442"/>
      <stop offset=".4" stop-color="#840253"/>
      <stop offset=".5" stop-color="#ae0167"/>
      <stop offset=".5" stop-color="#d9007c"/>
      <stop offset=".5" stop-color="#c40072"/>
      <stop offset=".6" stop-color="#8d0258"/>
      <stop offset=".7" stop-color="#600442"/>
      <stop offset=".8" stop-color="#3d0531"/>
      <stop offset=".9" stop-color="#230625"/>
      <stop offset=".9" stop-color="#14061e"/>
      <stop offset="1" stop-color="#0f071c"/>
    </linearGradient>
  </defs>
  <ellipse class="st2" cx="373" cy="203.6" rx="364.6" ry="193.5"/>
  <rect class="st0" x="12" y="481.9" width="12.1" height="12.6"/>
  <rect class="st0" x="36.9" y="481.9" width="12.1" height="12.6"/>
  <rect class="st0" x="61.8" y="481.9" width="12.1" height="12.6"/>
  <g>
    <path class="st0" d="M113.2,479.3l12.1,2.1c-1.5,4.6-4,8.1-7.3,10.5-3.3,2.4-7.5,3.6-12.5,3.6-8,0-13.8-2.7-17.7-8.1-3-4.3-4.5-9.8-4.5-16.4s2-14,5.9-18.5c4-4.4,9-6.7,15-6.7s12.2,2.3,16.1,7,5.8,11.8,5.7,21.4h-30.4c0,3.7,1.1,6.6,2.9,8.7,1.9,2.1,4.2,3.1,7,3.1s3.5-.5,4.8-1.6c1.3-.9,2.3-2.7,2.9-5.1M113.9,466.7c0-3.6-1-6.4-2.7-8.3-1.7-1.9-3.8-2.8-6.3-2.8s-4.8,1-6.6,3c-1.7,2-2.6,4.7-2.5,8.1h18.1Z"/>
    <path class="st0" d="M177.8,494.5h-12.1v-24.2c0-5.1-.3-8.4-.8-10s-1.3-2.7-2.5-3.5-2.6-1.3-4.2-1.3-4,.6-5.6,1.8c-1.7,1.2-2.8,2.8-3.4,4.8s-.9,5.6-.9,10.9v21.5h-12.1v-47.5h11.2v7c4-5.4,9-8,15.1-8s5.1.5,7.3,1.5c2.2,1,3.9,2.3,5,3.8s1.9,3.3,2.4,5.3c.4,2,.7,4.8.7,8.4v29.5h0Z"/>
    <path class="st0" d="M189.4,497.6l13.8,1.7c.2,1.7.8,2.8,1.6,3.4,1.2.9,3,1.3,5.4,1.3s5.5-.5,7.1-1.5c1.1-.7,1.9-1.7,2.4-3.2.4-1,.6-3,.6-5.8v-6.9c-3.6,5.1-8.2,7.7-13.7,7.7s-11-2.7-14.6-8.1c-2.8-4.3-4.2-9.6-4.2-15.9s1.8-14,5.5-18.2,8.3-6.3,13.8-6.3,10.3,2.6,14,7.7v-6.7h11.3v42.6c0,5.6-.4,9.8-1.3,12.6-.9,2.8-2.1,4.9-3.7,6.5-1.6,1.6-3.8,2.8-6.4,3.7-2.7.9-6.1,1.3-10.2,1.3-7.8,0-13.2-1.4-16.5-4.1-3.2-2.8-4.9-6.2-4.9-10.5,0-.2,0-.7,0-1.3M200.2,469.7c0,5,.9,8.7,2.8,11.1,1.9,2.3,4.2,3.5,7,3.5s5.5-1.2,7.5-3.6c2-2.4,3.1-6,3.1-10.7s-1-8.6-2.9-11-4.4-3.6-7.4-3.6-5.3,1.2-7.2,3.5c-1.9,2.5-2.9,6-2.9,10.8"/>
    <path class="st0" d="M244.9,428.9h12.1v11.6h-12.1v-11.6ZM244.9,447h12.1v47.5h-12.1v-47.5Z"/>
    <path class="st0" d="M311.4,494.5h-12.1v-24.2c0-5.1-.3-8.4-.8-10-.5-1.5-1.3-2.7-2.5-3.5s-2.6-1.3-4.2-1.3-4,.6-5.7,1.8-2.8,2.8-3.4,4.8c-.6,2-.9,5.6-.9,10.9v21.5h-12.1v-47.5h11.2v7c4-5.4,9-8,15.1-8s5.1.5,7.3,1.5,3.9,2.3,5,3.8c1.1,1.5,1.9,3.3,2.4,5.3.4,2,.7,4.8.7,8.4v29.5h0Z"/>
    <path class="st0" d="M350.6,479.3l12.1,2.1c-1.5,4.6-4,8.1-7.3,10.5s-7.5,3.6-12.5,3.6c-8,0-13.8-2.7-17.7-8.1-3-4.3-4.5-9.8-4.5-16.4s2-14,5.9-18.5c4-4.4,9-6.7,15-6.7s12.2,2.3,16.1,7,5.8,11.8,5.6,21.4h-30.3c.1,3.7,1.1,6.6,2.9,8.7,1.9,2.1,4.2,3.1,7,3.1s3.5-.5,4.8-1.6c1.2-.9,2.2-2.7,2.9-5.1M351.3,466.7c-.1-3.6-1-6.4-2.7-8.3-1.7-1.9-3.8-2.8-6.3-2.8s-4.8,1-6.5,3-2.6,4.7-2.5,8.1h18Z"/>
    <path class="st0" d="M400.1,479.3l12.1,2.1c-1.5,4.6-4,8.1-7.3,10.5s-7.5,3.6-12.5,3.6c-8,0-13.8-2.7-17.7-8.1-3-4.3-4.5-9.8-4.5-16.4s2-14,5.9-18.5c4-4.4,9-6.7,15-6.7s12.2,2.3,16.1,7,5.8,11.8,5.7,21.4h-30.3c.1,3.7,1.1,6.6,2.9,8.7,1.9,2.1,4.2,3.1,7,3.1s3.5-.5,4.8-1.6c1.1-.9,2.1-2.7,2.8-5.1M400.7,466.7c-.1-3.6-1-6.4-2.7-8.3-1.7-1.9-3.8-2.8-6.3-2.8s-4.8,1-6.6,3c-1.7,2-2.6,4.7-2.5,8.1h18.1Z"/>
    <path class="st0" d="M434.6,494.5h-12.1v-47.5h11.2v6.7c1.9-3.2,3.7-5.3,5.2-6.3s3.3-1.5,5.2-1.5c2.8,0,5.4.8,8,2.4l-3.7,11c-2-1.4-3.9-2.1-5.7-2.1s-3.1.5-4.3,1.5c-1.2,1-2.1,2.7-2.8,5.3-.7,2.5-1,7.8-1,15.9v14.6h0Z"/>
    <path class="st0" d="M457.8,428.9h12.1v11.6h-12.1v-11.6ZM457.8,447h12.1v47.5h-12.1v-47.5Z"/>
    <path class="st0" d="M524.3,494.5h-12.1v-24.2c0-5.1-.3-8.4-.8-10-.5-1.5-1.3-2.7-2.5-3.5s-2.6-1.3-4.2-1.3-4,.6-5.7,1.8-2.8,2.8-3.4,4.8-.9,5.6-.9,10.9v21.5h-12.1v-47.5h11.2v7c4-5.4,9-8,15.1-8s5.1.5,7.3,1.5c2.2,1,3.9,2.3,5,3.8s1.9,3.3,2.4,5.3c.4,2,.7,4.8.7,8.4v29.5Z"/>
    <path class="st0" d="M535.9,497.6l13.8,1.7c.2,1.7.8,2.8,1.6,3.4,1.2.9,3,1.3,5.4,1.3s5.5-.5,7.1-1.5c1.1-.7,1.9-1.7,2.4-3.2.4-1,.6-3,.6-5.8v-6.9c-3.6,5.1-8.2,7.7-13.7,7.7s-11-2.7-14.6-8.1c-2.8-4.3-4.2-9.6-4.2-15.9s1.8-14,5.5-18.2,8.3-6.3,13.7-6.3,10.3,2.6,14,7.7v-6.7h11.3v42.6c0,5.6-.4,9.8-1.3,12.6-.9,2.8-2.1,4.9-3.7,6.5-1.6,1.6-3.8,2.8-6.4,3.7-2.7.9-6.1,1.3-10.2,1.3-7.8,0-13.2-1.4-16.5-4.1-3.2-2.8-4.9-6.2-4.9-10.5.1-.2.1-.7.1-1.3M546.7,469.7c0,5,.9,8.7,2.8,11.1,1.9,2.3,4.2,3.5,6.9,3.5s5.5-1.2,7.5-3.6c2-2.4,3.1-6,3.1-10.7s-1-8.6-2.9-11-4.4-3.6-7.4-3.6-5.3,1.2-7.2,3.5c-1.8,2.5-2.8,6-2.8,10.8"/>
    <path class="st0" d="M616.3,428.9h12.7v35.5c0,5.6.2,9.3.5,10.9.5,2.7,1.8,4.8,3.9,6.5,2.1,1.6,4.9,2.4,8.4,2.4s6.4-.8,8.2-2.3,3-3.4,3.3-5.7c.4-2.2.6-5.9.6-11.1v-36.3h12.7v34.4c0,7.9-.3,13.4-1,16.7-.7,3.2-2,6-3.8,8.2-1.9,2.2-4.3,4-7.4,5.3s-7.1,2-12.1,2-10.6-.7-13.7-2.2c-3.1-1.5-5.6-3.3-7.4-5.6-1.8-2.3-3-4.7-3.6-7.3-.8-3.8-1.2-9.3-1.2-16.6v-34.8h0Z"/>
    <polygon class="st0" points="696.6 494.5 674 428.9 687.9 428.9 703.8 477.4 719.3 428.9 732.8 428.9 710.2 494.5 696.6 494.5"/>
  </g>
  <polygon class="st1" points="459 307.6 410.6 118.1 449.2 118.1 483.1 269.6 483.6 269.6 514.8 118.1 564.4 118.1 596.6 269.6 597.1 269.6 631.3 118.1 666.9 118.1 619.3 307.6 572.2 307.6 539.3 156.1 538.8 156.1 506.4 307.6 459 307.6"/>
  <polygon class="st1" points="277.6 307.6 277.6 118.1 385.4 118.1 385.4 148 314.3 148 314.3 194.7 379.4 194.7 379.4 224.5 314.3 224.5 314.3 277.8 385.9 277.8 385.9 307.6 277.6 307.6"/>
  <path class="st1" d="M227.3,122.7l-2.3,32.1c-13.9-6.7-29.6-10.1-47.1-10.1s-37,6.6-49,19.7c-11.4,12.5-17.1,28.8-17.1,48.9s5.5,35.9,16.5,48.3c11.3,12.9,26.5,19.3,45.6,19.3s17-.9,24-2.6v-49.4h-38.7v-29.8h73.6v102c-23.1,6.5-42.8,9.8-59,9.8-30.6,0-54.7-7.8-72.2-23.5-18.6-16.5-27.9-40.3-27.9-71.3s8.9-57.2,26.8-75c17.6-17.5,42.1-26.2,73.4-26.2s36.7,2.6,53.4,7.8"/>
</svg>